#N canvas 84 111 1442 827 12;
#X declare -lib mrpeach;
#X obj 341 60 vsl 60 256 0 1 0 0 empty empty empty 0 -9 0 10 -204800
-1 -1 22440 1;
#X floatatom 347 336 5 0 0 0 - - -;
#N canvas 966 478 450 300 scaler 0;
#X obj 75 42 inlet;
#X obj 131 237 outlet;
#X msg 115 120 30;
#X obj 118 79 moses 100;
#X obj 201 101 moses 5000;
#X msg 255 145 10000;
#X obj 181 188 f;
#X connect 0 0 3 0;
#X connect 2 0 6 0;
#X connect 3 0 2 0;
#X connect 3 1 4 0;
#X connect 4 0 6 0;
#X connect 4 1 5 0;
#X connect 5 0 6 0;
#X connect 6 0 1 0;
#X restore 587 380 pd scaler;
#X obj 267 61 vsl 60 256 0 1 0 0 empty empty empty 0 -9 0 10 -261234
-1 -1 0 1;
#N canvas 966 478 450 300 scaler 0;
#X obj 75 42 inlet;
#X obj 131 237 outlet;
#X msg 115 120 30;
#X obj 118 79 moses 100;
#X obj 201 101 moses 5000;
#X msg 255 145 10000;
#X obj 181 188 f;
#X connect 0 0 3 0;
#X connect 2 0 6 0;
#X connect 3 0 2 0;
#X connect 3 1 4 0;
#X connect 4 0 6 0;
#X connect 4 1 5 0;
#X connect 5 0 6 0;
#X connect 6 0 1 0;
#X restore 95 402 pd scaler;
#X obj 52 143 nbx 5 40 -1e+37 1e+37 0 0 empty empty empty 0 -8 0 40
-204800 -1 -1 3805.14 256;
#X obj 51 73 nbx 5 40 -1e+37 1e+37 0 0 empty empty empty 0 -8 0 40
-261234 -1 -1 30 256;
#X obj 264 355 moses;
#X floatatom 212 382 5 0 0 0 - - -;
#X floatatom 219 330 5 0 0 0 - - -;
#X text 263 27 Low Freq;
#X obj 416 60 vsl 60 256 0 1 0 0 empty empty empty 0 -9 0 10 -4034
-1 -1 22440 1;
#X floatatom 422 335 5 0 0 0 - - -;
#X text 342 28 Hi Freq;
#X text 432 31 Vol;
#X obj 475 324 expr log($f1*1.718+1);
#X obj 49 210 nbx 5 40 -1e+37 1e+37 0 0 empty empty empty 0 -8 0 40
-4034 -1 -1 0.921016 256;
#X text 61 45 Low Freq;
#X text 54 118 Hi Freq;
#X text 54 186 Vol;
#X obj 601 221 pan~;
#X obj 570 167 *~ 1;
#X obj 571 21 adc~ 1;
#X obj 490 59 vsl 60 256 0 1 0 0 empty empty empty 0 -9 0 10 -260097
-1 -1 14025 1;
#X obj 52 272 nbx 5 40 -1e+37 1e+37 0 0 empty empty empty 0 -8 0 40
-260097 -1 -1 0.1 256;
#X obj 604 285 expr $f1*90 -45;
#X obj 477 362 expr $f1*2-1;
#X floatatom 650 317 5 0 0 0 - - -;
#X text 506 30 Pan;
#X text 54 247 Pan;
#X obj 591 256 dac~ 1 2;
#X obj 424 1 tgl 30 0 empty empty empty 17 7 0 10 -203904 -1 -1 0 1
;
#X floatatom 587 -7 5 0 0 0 - - -;
#X obj 599 -38 line;
#X obj 583 57 *~ 1;
#X obj 654 31 noise~;
#X text 420 -31 INPUT;
#X obj 486 -6 tgl 30 0 empty empty empty 17 7 0 10 -262130 -1 -1 0
1;
#X text 484 -31 TEST;
#X msg 657 -56 \$1 500;
#X floatatom 675 4 5 0 0 0 - - -;
#X obj 667 -29 line;
#X obj 656 56 *~ 1;
#X obj 770 -26 loadbang;
#X msg 787 13 0;
#X msg 796 40 0.5;
#X msg 794 73 1;
#X msg 589 -65 \$1 500;
#X obj 561 93 hp4_butt~ 30 200;
#X obj 566 124 lp4_butt~ 10000 200;
#X msg 285 -15 \; pd dsp \$1;
#X obj 375 -7 tgl 30 0 empty empty empty 17 7 0 10 -258113 -228856
-262144 0 1;
#X text 377 -31 DSP;
#X text 73 -20 MIKROPHONIE 1;
#X obj 695 449 import mrpeach;
#X obj 753 244 unpackOSC;
#X obj 774 342 routeOSC /mik;
#X obj 690 396 routeOSC /low /high /vol /pan;
#X floatatom 586 426 5 0 0 0 - - -;
#X obj 724 193 udpreceive 9999;
#X msg 765 149 status;
#X obj 75 352 maxlib/scale 0 1 75 6500 1;
#X obj 574 354 maxlib/scale 0 1 75 6500 1;
#X text 74 0 by Derek X Kwan;
#X obj 707 68 *~ 0.15;
#X text 903 46 1-0: Low Freq;
#X text 903 66 q-p: High Freq;
#X text 904 99 z-/: Pan;
#X obj 712 95 *~ 1;
#X obj 214 -4 knob 32 32 0 1 0 0 empty empty gain 0 -8 0 8 -262144
-1 -1 0 1;
#X floatatom 210 46 5 0 0 0 - - -;
#N canvas 401 210 1058 748 keyput 0;
#X obj 4 436 outlet;
#X obj 90 -35 key;
#X floatatom 68 3 5 0 0 0 - - -;
#X msg 125 45 0;
#X msg 161 53 0.11;
#X msg 212 56 0.22;
#X msg 255 57 0.33;
#X msg 364 58 0.55;
#X msg 426 66 0.66;
#X msg 477 61 0.77;
#X msg 537 57 0.88;
#X msg 595 57 1;
#X obj 84 95 f;
#X msg 315 56 0.44;
#X obj 125 3 sel 49 50 51 52 53 54 55 56 57 48;
#X obj 29 162 line;
#X msg 50 122 \$1 100;
#X obj 118 492 outlet;
#X obj 214 145 sel 113 119 101 114 116 121 117 105 111 112;
#X msg 231 185 0;
#X msg 267 193 0.11;
#X msg 318 196 0.22;
#X msg 361 197 0.33;
#X msg 470 198 0.55;
#X msg 532 206 0.66;
#X msg 583 201 0.77;
#X msg 643 197 0.88;
#X msg 701 197 1;
#X obj 190 235 f;
#X msg 421 196 0.44;
#X obj 57 272 line;
#X msg 78 232 \$1 100;
#X obj 315 290 sel 97 115 100 102 103 104 106 107 108 59;
#X msg 213 344 0;
#X msg 249 352 0.11;
#X msg 300 355 0.22;
#X msg 343 356 0.33;
#X msg 452 357 0.55;
#X msg 514 365 0.66;
#X msg 565 360 0.77;
#X msg 625 356 0.88;
#X msg 683 356 1;
#X obj 399 403 f;
#X msg 403 355 0.44;
#X obj 270 461 line;
#X msg 282 419 \$1 100;
#X obj 274 517 outlet;
#X msg 459 482 0;
#X msg 495 490 0.11;
#X msg 546 493 0.22;
#X msg 589 494 0.33;
#X msg 698 495 0.55;
#X msg 760 503 0.66;
#X msg 811 498 0.77;
#X msg 871 494 0.88;
#X obj 645 541 f;
#X msg 649 493 0.44;
#X obj 547 613 line;
#X msg 625 624 \$1 100;
#X obj 561 426 sel 122 120 99 118 98 110 109 44 46 47;
#X obj 473 634 outlet;
#X msg 938 500 1;
#X connect 1 0 2 0;
#X connect 1 0 14 0;
#X connect 1 0 18 0;
#X connect 1 0 32 0;
#X connect 1 0 59 0;
#X connect 3 0 12 0;
#X connect 4 0 12 0;
#X connect 5 0 12 0;
#X connect 6 0 12 0;
#X connect 7 0 12 0;
#X connect 8 0 12 0;
#X connect 9 0 12 0;
#X connect 10 0 12 0;
#X connect 11 0 12 0;
#X connect 12 0 16 0;
#X connect 13 0 12 0;
#X connect 14 0 3 0;
#X connect 14 1 4 0;
#X connect 14 2 5 0;
#X connect 14 3 6 0;
#X connect 14 4 13 0;
#X connect 14 5 7 0;
#X connect 14 6 8 0;
#X connect 14 7 9 0;
#X connect 14 8 10 0;
#X connect 14 9 11 0;
#X connect 15 0 0 0;
#X connect 16 0 15 0;
#X connect 18 0 19 0;
#X connect 18 1 20 0;
#X connect 18 2 21 0;
#X connect 18 3 22 0;
#X connect 18 4 29 0;
#X connect 18 5 23 0;
#X connect 18 6 24 0;
#X connect 18 7 25 0;
#X connect 18 8 26 0;
#X connect 18 9 27 0;
#X connect 19 0 28 0;
#X connect 20 0 28 0;
#X connect 21 0 28 0;
#X connect 22 0 28 0;
#X connect 23 0 28 0;
#X connect 24 0 28 0;
#X connect 25 0 28 0;
#X connect 26 0 28 0;
#X connect 27 0 28 0;
#X connect 28 0 31 0;
#X connect 29 0 28 0;
#X connect 30 0 17 0;
#X connect 31 0 30 0;
#X connect 32 0 33 0;
#X connect 32 1 34 0;
#X connect 32 2 35 0;
#X connect 32 3 36 0;
#X connect 32 4 43 0;
#X connect 32 5 37 0;
#X connect 32 6 38 0;
#X connect 32 7 39 0;
#X connect 32 8 40 0;
#X connect 32 9 41 0;
#X connect 33 0 42 0;
#X connect 34 0 42 0;
#X connect 35 0 42 0;
#X connect 36 0 42 0;
#X connect 37 0 42 0;
#X connect 38 0 42 0;
#X connect 39 0 42 0;
#X connect 40 0 42 0;
#X connect 41 0 42 0;
#X connect 42 0 45 0;
#X connect 43 0 42 0;
#X connect 44 0 46 0;
#X connect 45 0 44 0;
#X connect 47 0 55 0;
#X connect 48 0 55 0;
#X connect 49 0 55 0;
#X connect 50 0 55 0;
#X connect 51 0 55 0;
#X connect 52 0 55 0;
#X connect 53 0 55 0;
#X connect 54 0 55 0;
#X connect 55 0 58 0;
#X connect 56 0 55 0;
#X connect 57 0 60 0;
#X connect 58 0 57 0;
#X connect 59 0 47 0;
#X connect 59 1 48 0;
#X connect 59 2 49 0;
#X connect 59 3 50 0;
#X connect 59 4 56 0;
#X connect 59 5 51 0;
#X connect 59 6 52 0;
#X connect 59 7 53 0;
#X connect 59 8 54 0;
#X connect 59 9 61 0;
#X connect 61 0 55 0;
#X restore 337 -62 pd keyput;
#X text 906 82 a- \; : Vol;
#X text 905 23 Key Control;
#X connect 0 0 1 0;
#X connect 0 0 7 0;
#X connect 0 0 62 0;
#X connect 2 0 5 0;
#X connect 2 0 49 1;
#X connect 3 0 7 1;
#X connect 3 0 9 0;
#X connect 3 0 61 0;
#X connect 4 0 6 0;
#X connect 4 0 48 1;
#X connect 7 0 8 0;
#X connect 7 0 3 0;
#X connect 11 0 12 0;
#X connect 11 0 15 0;
#X connect 15 0 16 0;
#X connect 15 0 21 1;
#X connect 20 0 30 0;
#X connect 20 1 30 1;
#X connect 21 0 20 0;
#X connect 22 0 34 0;
#X connect 23 0 25 0;
#X connect 23 0 26 0;
#X connect 25 0 20 1;
#X connect 25 0 27 0;
#X connect 26 0 24 0;
#X connect 31 0 47 0;
#X connect 33 0 32 0;
#X connect 33 0 34 1;
#X connect 34 0 68 0;
#X connect 35 0 42 0;
#X connect 37 0 39 0;
#X connect 39 0 41 0;
#X connect 41 0 40 0;
#X connect 41 0 42 1;
#X connect 42 0 64 0;
#X connect 43 0 44 0;
#X connect 43 0 45 0;
#X connect 43 0 46 0;
#X connect 44 0 11 0;
#X connect 44 0 3 0;
#X connect 44 0 37 0;
#X connect 44 0 31 0;
#X connect 45 0 23 0;
#X connect 46 0 0 0;
#X connect 47 0 33 0;
#X connect 48 0 49 0;
#X connect 49 0 21 0;
#X connect 51 0 50 0;
#X connect 55 0 56 0;
#X connect 56 0 57 0;
#X connect 57 0 3 0;
#X connect 57 0 58 0;
#X connect 57 1 0 0;
#X connect 57 2 11 0;
#X connect 57 3 23 0;
#X connect 59 0 55 0;
#X connect 60 0 59 0;
#X connect 61 0 4 0;
#X connect 62 0 2 0;
#X connect 64 0 48 0;
#X connect 68 0 48 0;
#X connect 69 0 68 1;
#X connect 69 0 70 0;
#X connect 71 0 3 0;
#X connect 71 1 0 0;
#X connect 71 2 11 0;
#X connect 71 3 23 0;
